<svg  width="491" height="497" viewBox="0 0 491 497">
  <g id="Group_6" data-name="Group 6" transform="translate(-551 -192)">
    <path id="Path_4" data-name="Path 4" d="M20,0h85a20,20,0,0,1,20,20V90a20,20,0,0,1-20,20H20A20,20,0,0,1,0,90V20A20,20,0,0,1,20,0Z" transform="translate(551 398)" fill="#f8f8f8"/>
    <path id="Path_1" data-name="Path 1" d="M20,0h85a20,20,0,0,1,20,20V90a20,20,0,0,1-20,20H20A20,20,0,0,1,0,90V20A20,20,0,0,1,20,0Z" transform="translate(667 295)" fill="#31326f"/>
    <path id="Path_6" data-name="Path 6" d="M20,0h85a20,20,0,0,1,20,20V90a20,20,0,0,1-20,20H20A20,20,0,0,1,0,90V20A20,20,0,0,1,20,0Z" transform="translate(667 499)" fill="#31326f"/>
    <path id="Path_3" data-name="Path 3" d="M20,0h85a20,20,0,0,1,20,20V90a20,20,0,0,1-20,20H20A20,20,0,0,1,0,90V20A20,20,0,0,1,20,0Z" transform="translate(794 192)" fill="#9ddfd3"/>
    <path id="Path_5" data-name="Path 5" d="M20,0h85a20,20,0,0,1,20,20V90a20,20,0,0,1-20,20H20A20,20,0,0,1,0,90V20A20,20,0,0,1,20,0Z" transform="translate(792 389)" fill="#9ddfd3"/>
    <path id="Path_2" data-name="Path 2" d="M20,0l95.035,197L105,0a20,20,0,0,1,20,20V90a20,20,0,0,1-20,20H20A20,20,0,0,1,0,90V20A20,20,0,0,1,20,0Z" transform="translate(917 306)" fill="#f46e6e"/>
    <path id="Path_7" data-name="Path 7" d="M18.375,0S-142.861,195.023-123.092,185.674,102.447,0,102.447,0c10.925,0,19.782,9.235,19.782,20.626V92.818c0,11.391-8.856,20.626-19.782,20.626H18.375c-10.925,0-19.781-9.235-19.781-20.626V20.626C-1.406,9.235,7.45,0,18.375,0Z" transform="translate(918.772 503)" fill="#31326f"/>
    <path id="Path_8" data-name="Path 8" d="M20.817,0C47.071,0-111.606,139.777-111.606,164.633S47.071,90.011,20.817,90.011-26.72,69.862-26.72,45.006-5.437,0,20.817,0Z" transform="translate(710.606 299)" fill="#f46e6e"/>
  </g>
</svg>
